<svg width="20" height="21" viewBox="0 0 20 21" fill="none" xmlns="http://www.w3.org/2000/svg">
<path d="M16.6673 10.918V6.16797C16.6673 4.76784 16.6673 4.06777 16.3948 3.53299C16.1552 3.06259 15.7727 2.68014 15.3023 2.44045C14.7675 2.16797 14.0674 2.16797 12.6673 2.16797H7.33398C5.93385 2.16797 5.23379 2.16797 4.69901 2.44045C4.2286 2.68014 3.84615 3.06259 3.60647 3.53299C3.33398 4.06777 3.33398 4.76784 3.33398 6.16797V14.8346C3.33398 16.2348 3.33398 16.9348 3.60647 17.4696C3.84615 17.94 4.2286 18.3225 4.69901 18.5622C5.23379 18.8346 5.93385 18.8346 7.33398 18.8346H10.0007M11.6673 9.66797H6.66732M8.33398 13.0013H6.66732M13.334 6.33464H6.66732M12.084 16.3346L13.7507 18.0013L17.5007 14.2513" stroke="#2C60FF" stroke-width="1.66667" stroke-linecap="round" stroke-linejoin="round"/>
</svg>
