<svg xmlns="http://www.w3.org/2000/svg" width="32" height="32" viewBox="0 0 32 32" fill="none">
  <path d="M7 13.375H25V11.8C25 10.8199 25 10.3299 24.8038 9.95552C24.6312 9.62623 24.3559 9.35852 24.0172 9.19074C23.6321 9 23.1281 9 22.12 9H9.88C8.87191 9 8.36786 9 7.98282 9.19074C7.64413 9.35852 7.36876 9.62623 7.19619 9.95552C7 10.3299 7 10.8199 7 11.8V18.45C7 19.4301 7 19.9201 7.19619 20.2945C7.36876 20.6238 7.64413 20.8915 7.98282 21.0593C8.36786 21.25 8.87191 21.25 9.88 21.25H15.1M18.25 23L20.0725 22.6456C20.2314 22.6147 20.3108 22.5993 20.3849 22.571C20.4507 22.5459 20.5132 22.5134 20.5711 22.4741C20.6364 22.4299 20.6937 22.3742 20.8083 22.2628L24.55 18.625C25.0471 18.1418 25.0471 17.3582 24.55 16.875C24.0529 16.3918 23.2471 16.3918 22.75 16.875L19.0083 20.5128C18.8937 20.6242 18.8364 20.6799 18.7909 20.7433C18.7505 20.7997 18.717 20.8604 18.6912 20.9244C18.6622 20.9964 18.6463 21.0737 18.6145 21.2282L18.25 23Z" stroke="#C4C6D4" stroke-width="1.5" stroke-linecap="round" stroke-linejoin="round"/>
</svg>