<svg xmlns="http://www.w3.org/2000/svg" width="25" height="24" viewBox="0 0 25 24" fill="none">
  <path d="M14.9395 2.26953V6.40007C14.9395 6.96012 14.9395 7.24015 15.0484 7.45406C15.1443 7.64222 15.2973 7.7952 15.4855 7.89108C15.6994 8.00007 15.9794 8.00007 16.5395 8.00007H20.67M16.9395 13H8.93945M16.9395 17H8.93945M10.9395 9H8.93945M14.9395 2H9.73945C8.0593 2 7.21922 2 6.57748 2.32698C6.013 2.6146 5.55405 3.07354 5.26643 3.63803C4.93945 4.27976 4.93945 5.11984 4.93945 6.8V17.2C4.93945 18.8802 4.93945 19.7202 5.26643 20.362C5.55405 20.9265 6.013 21.3854 6.57748 21.673C7.21922 22 8.0593 22 9.73945 22H16.1395C17.8196 22 18.6597 22 19.3014 21.673C19.8659 21.3854 20.3249 20.9265 20.6125 20.362C20.9395 19.7202 20.9395 18.8802 20.9395 17.2V8L14.9395 2Z" stroke="#7F82A1" stroke-width="2" stroke-linecap="round" stroke-linejoin="round"/>
</svg>